<svg width="17" height="17" viewBox="0 0 17 17" fill="none" xmlns="http://www.w3.org/2000/svg">
<path fill-rule="evenodd" clip-rule="evenodd" d="M12.5182 0.390625H4.51819C2.31839 0.390625 0.518188 2.19002 0.518188 4.39062V12.3906C0.518188 14.5904 2.31839 16.3906 4.51819 16.3906H12.5182C14.718 16.3906 16.5182 14.5904 16.5182 12.3906V4.39062C16.5182 2.19002 14.718 0.390625 12.5182 0.390625ZM8.51809 11.7238C6.67689 11.7238 5.18469 10.231 5.18469 8.39062C5.18469 6.54942 6.67689 5.05722 8.51809 5.05722C10.3585 5.05722 11.8515 6.54942 11.8515 8.39062C11.8515 10.231 10.3585 11.7238 8.51809 11.7238ZM11.8517 4.05722C11.8517 4.60942 12.2989 5.05722 12.8517 5.05722C13.4045 5.05722 13.8517 4.60942 13.8517 4.05722C13.8517 3.50502 13.4045 3.05722 12.8517 3.05722C12.2989 3.05722 11.8517 3.50502 11.8517 4.05722Z" fill="#2C2C2C"/>
</svg>
