<svg width="17" height="17" viewBox="0 0 17 17" fill="none" xmlns="http://www.w3.org/2000/svg">
<path d="M14.5411 4.37809C14.5517 4.55351 14.5517 4.72793 14.5517 4.90234C14.5517 10.24 11.2519 16.3906 5.22137 16.3906C3.36344 16.3906 1.63741 15.7281 0.184937 14.5773C0.448726 14.6144 0.702746 14.6274 0.977121 14.6274C2.5102 14.6274 3.92115 13.9899 5.04877 12.9023C3.60688 12.8653 2.39866 11.7025 1.9818 10.1027C2.18453 10.1398 2.38807 10.1648 2.60138 10.1648C2.8953 10.1648 3.19084 10.1147 3.46521 10.0275C1.96145 9.65262 0.835456 8.02776 0.835456 6.0651V6.01498C1.27266 6.31469 1.77989 6.50214 2.31724 6.5272C1.43387 5.80348 0.854996 4.56554 0.854996 3.16521C0.854996 2.41543 1.01701 1.7278 1.30116 1.12838C2.91565 3.57719 5.34268 5.178 8.06363 5.35341C8.01315 5.0527 7.98221 4.74096 7.98221 4.42821C7.98221 2.20293 9.44445 0.390625 11.2617 0.390625C12.2061 0.390625 13.0585 0.877782 13.6578 1.66565C14.3987 1.49024 15.1086 1.15243 15.7388 0.690337C15.4953 1.62756 14.9767 2.41543 14.2969 2.91562C14.9572 2.82741 15.5971 2.60288 16.1849 2.29014C15.7388 3.09004 15.1811 3.80273 14.5411 4.37809Z" fill="#2C2C2C"/>
</svg>
