<svg width="14" height="14" viewBox="0 0 14 14" fill="none" xmlns="http://www.w3.org/2000/svg">
<path d="M10.9167 13.4999C10.3501 13.4999 9.55431 13.295 8.3626 12.6293C6.91344 11.8168 5.79254 11.0667 4.35122 9.62944C2.96156 8.24092 2.28531 7.34193 1.33884 5.61999C0.269603 3.67577 0.451873 2.65665 0.65562 2.22109C0.898259 1.7005 1.25641 1.38914 1.71934 1.08009C1.98228 0.907853 2.26054 0.760203 2.55058 0.639018C2.57961 0.62654 2.6066 0.614643 2.63069 0.603906C2.77436 0.539196 2.99203 0.441404 3.26776 0.54587C3.45177 0.614933 3.61605 0.756252 3.8732 1.01016C4.40056 1.53017 5.12122 2.68828 5.38708 3.25704C5.56557 3.64037 5.6837 3.89341 5.68399 4.17721C5.68399 4.50947 5.51681 4.7657 5.31394 5.04224C5.27592 5.09418 5.23819 5.1438 5.20162 5.19197C4.98074 5.48216 4.93228 5.56602 4.9642 5.71575C5.02892 6.01667 5.51159 6.91246 6.30481 7.70379C7.09803 8.49512 7.96816 8.94722 8.2703 9.01164C8.42645 9.04501 8.51207 8.99452 8.81159 8.76586C8.85455 8.73307 8.89867 8.69912 8.94481 8.66516C9.25421 8.43505 9.49859 8.27226 9.82307 8.27226H9.82482C10.1072 8.27226 10.349 8.39471 10.7495 8.59668C11.2719 8.86017 12.4651 9.5714 12.9884 10.0992C13.2429 10.3558 13.3849 10.5194 13.4542 10.7031C13.5587 10.9797 13.4603 11.1964 13.3962 11.3415C13.3855 11.3656 13.3736 11.392 13.3611 11.4213C13.2389 11.7108 13.0904 11.9884 12.9173 12.2507C12.6088 12.712 12.2962 13.0693 11.7743 13.3121C11.5064 13.4389 11.2131 13.5031 10.9167 13.4999Z" fill="white"/>
</svg>
